<svg xmlns="http://www.w3.org/2000/svg" width="324" height="204" viewBox="0 0 324 204">
  <g id="Group_422" data-name="Group 422" transform="translate(-478 -475)">
    <rect id="Rectangle_3138" data-name="Rectangle 3138" width="324" height="204" transform="translate(478 475)" fill="#f7f9fc"/>
    <g id="Group_416" data-name="Group 416" transform="translate(0 -1)">
      <text id="Your_personalised_feedback" data-name="Your personalised feedback" transform="translate(538 531.691)" fill="#191919" font-size="16" font-family="GTFRiposteTRIAL-Medium, GTF Riposte TRIAL" font-weight="500"><tspan x="0" y="0">Your personalised feedback</tspan></text>
      <text id="Top_Strengths" data-name="Top Strengths" transform="translate(565 565.903)" fill="#616779" font-size="12" font-family="GTFRiposteTRIAL-Regular, GTF Riposte TRIAL"><tspan x="-38.286" y="0">Top Strengths</tspan></text>
      <text id="Areas_to_improve" data-name="Areas to improve" transform="translate(713 565.903)" fill="#616779" font-size="12" font-family="GTFRiposteTRIAL-Regular, GTF Riposte TRIAL"><tspan x="-45.948" y="0">Areas to improve</tspan></text>
      <text id="Overestimation" transform="translate(522 616.903)" fill="#616779" font-size="12" font-family="GTFRiposteTRIAL-Regular, GTF Riposte TRIAL"><tspan x="0" y="0">Overestimation</tspan></text>
      <text id="Under_estimation" data-name="Under estimation" transform="translate(670 616.903)" fill="#616779" font-size="12" font-family="GTFRiposteTRIAL-Regular, GTF Riposte TRIAL"><tspan x="0" y="0">Under estimation</tspan></text>
      <g id="Group_409" data-name="Group 409" transform="translate(502 576.5)">
        <rect id="Rectangle_3154" data-name="Rectangle 3154" width="130" height="11.999" rx="2" transform="translate(0 0)" fill="#e5e5e5"/>
        <rect id="Rectangle_3155" data-name="Rectangle 3155" width="91.398" height="11.999" rx="2" transform="translate(0 0)" fill="#4271f9"/>
        <path id="Path_1266" data-name="Path 1266" d="M-3120-8962v12" transform="translate(3151.244 8962)" fill="none" stroke="#fff" stroke-width="0.5"/>
        <path id="Path_1267" data-name="Path 1267" d="M-3120-8962v12" transform="translate(3171.01 8962)" fill="none" stroke="#fff" stroke-width="0.5"/>
        <path id="Path_1268" data-name="Path 1268" d="M-3120-8962v12" transform="translate(3196.837 8962)" fill="none" stroke="#fff" stroke-width="0.5"/>
        <path id="Path_1269" data-name="Path 1269" d="M-3120-8962v12" transform="translate(3222.234 8962)" fill="none" stroke="#d6d6d6" stroke-width="0.5"/>
      </g>
      <g id="Group_414" data-name="Group 414" transform="translate(-77.458 64)">
        <rect id="Rectangle_3154-2" data-name="Rectangle 3154" width="130" height="11.999" rx="2" transform="translate(579.458 563.081)" fill="#e5e5e5"/>
        <rect id="Rectangle_3167" data-name="Rectangle 3167" width="83.398" height="11.999" rx="2" transform="translate(592.458 563.081)" fill="#2dd775"/>
        <rect id="Rectangle_3155-2" data-name="Rectangle 3155" width="83.398" height="11.999" rx="2" transform="translate(579.458 563.081)" fill="#4271f9"/>
        <path id="Path_1266-2" data-name="Path 1266" d="M-3120-8962v12" transform="translate(3730.702 9525.081)" fill="none" stroke="#fff" stroke-width="0.5"/>
        <path id="Path_1267-2" data-name="Path 1267" d="M-3120-8962v12" transform="translate(3750.468 9525.081)" fill="none" stroke="#fff" stroke-width="0.5"/>
        <path id="Path_1268-2" data-name="Path 1268" d="M-3120-8962v12" transform="translate(3776.295 9525.081)" fill="none" stroke="#fff" stroke-width="0.5"/>
        <path id="Path_1269-2" data-name="Path 1269" d="M-3120-8962v12" transform="translate(3801.692 9525.081)" fill="none" stroke="#d6d6d6" stroke-width="0.5"/>
      </g>
      <g id="Group_415" data-name="Group 415" transform="translate(68.542 64)">
        <rect id="Rectangle_3154-3" data-name="Rectangle 3154" width="130" height="11.998" rx="2" transform="translate(579.458 563.081)" fill="#e5e5e5"/>
        <rect id="Rectangle_3167-2" data-name="Rectangle 3167" width="83.398" height="11.998" rx="2" transform="translate(592.458 563.081)" fill="#4271f9"/>
        <rect id="Rectangle_3155-3" data-name="Rectangle 3155" width="83.398" height="11.998" rx="2" transform="translate(579.458 563.081)" fill="#2dd775"/>
        <path id="Path_1266-3" data-name="Path 1266" d="M-3120-8962v12" transform="translate(3730.702 9525.081)" fill="none" stroke="#fff" stroke-width="0.5"/>
        <path id="Path_1267-3" data-name="Path 1267" d="M-3120-8962v12" transform="translate(3750.468 9525.081)" fill="none" stroke="#fff" stroke-width="0.5"/>
        <path id="Path_1268-3" data-name="Path 1268" d="M-3120-8962v12" transform="translate(3776.295 9525.081)" fill="none" stroke="#fff" stroke-width="0.5"/>
        <path id="Path_1269-3" data-name="Path 1269" d="M-3120-8962v12" transform="translate(3801.692 9525.081)" fill="none" stroke="#d6d6d6" stroke-width="0.5"/>
      </g>
      <g id="Group_413" data-name="Group 413" transform="translate(648 576.5)">
        <rect id="Rectangle_3154-4" data-name="Rectangle 3154" width="130" height="11.999" rx="2" transform="translate(0 0)" fill="#e5e5e5"/>
        <rect id="Rectangle_3155-4" data-name="Rectangle 3155" width="45.398" height="11.999" rx="2" transform="translate(0 0)" fill="#4271f9"/>
        <path id="Path_1266-4" data-name="Path 1266" d="M-3120-8962v12" transform="translate(3151.244 8962)" fill="none" stroke="#fff" stroke-width="0.5"/>
        <path id="Path_1267-4" data-name="Path 1267" d="M-3120-8962v12" transform="translate(3171.01 8962)" fill="none" stroke="#d6d6d6" stroke-width="0.5"/>
        <path id="Path_1268-4" data-name="Path 1268" d="M-3120-8962v12" transform="translate(3196.837 8962)" fill="none" stroke="#d6d6d6" stroke-width="0.5"/>
        <path id="Path_1269-4" data-name="Path 1269" d="M-3120-8962v12" transform="translate(3222.234 8962)" fill="none" stroke="#d6d6d6" stroke-width="0.5"/>
      </g>
    </g>
  </g>
</svg>
